<svg xmlns="http://www.w3.org/2000/svg" width="12" height="12" viewBox="0 0 12 12" fill="none">
  <path d="M9.33333 0.666748H8.66666H2.37999C1.66666 0.666748 1.05999 1.11341 0.919995 1.74008L0.0266611 5.74008C-0.153339 6.56675 0.546661 7.33341 1.48666 7.33341H4.30666L3.29333 10.6267C3.07999 11.3134 3.63999 12.0001 4.41333 12.0001C4.79999 12.0001 5.17333 11.8401 5.42666 11.5667L9.33333 7.33341H12V0.666748H9.33333ZM4.93333 11.1134C4.80666 11.2534 4.61333 11.3334 4.41333 11.3334C4.23999 11.3334 4.07999 11.2601 3.99333 11.1334C3.94666 11.0667 3.89333 10.9601 3.93333 10.8201L4.94666 7.52675L5.21333 6.66675H4.30666H1.48666C1.21333 6.66675 0.953328 6.55341 0.799994 6.36008C0.719994 6.26008 0.633328 6.09341 0.679994 5.88008L1.57333 1.88008C1.63999 1.56675 1.97999 1.33341 2.37999 1.33341H8.66666V7.07341L4.93333 11.1134ZM11.3333 6.66675H9.33333V1.33341H11.3333V6.66675Z" fill="white"/>
</svg>