<svg xmlns="http://www.w3.org/2000/svg" width="12" height="12" viewBox="0 0 12 12" fill="none">
  <path d="M10.5133 5.33341H7.69333L8.70667 2.04008C8.92 1.35341 8.36 0.666748 7.58667 0.666748C7.2 0.666748 6.82667 0.826748 6.57333 1.10008L2.66667 5.33341H0V12.0001H2.66667H3.33333H9.62C10.3267 12.0001 10.94 11.5534 11.08 10.9267L11.9733 6.92675C12.1533 6.10008 11.4533 5.33341 10.5133 5.33341ZM2.66667 11.3334H0.666667V6.00008H2.66667V11.3334ZM11.32 6.78008L10.4267 10.7801C10.36 11.1001 10.02 11.3334 9.62 11.3334H3.33333V5.59341L7.06667 1.55341C7.19333 1.41341 7.38667 1.33341 7.58667 1.33341C7.76 1.33341 7.92 1.40675 8.00667 1.53341C8.05333 1.60008 8.10667 1.70675 8.06667 1.84675L7.05333 5.14008L6.78667 6.00008H7.68667H10.5067C10.78 6.00008 11.04 6.11341 11.1933 6.30675C11.28 6.40675 11.3667 6.57341 11.32 6.78008Z" fill="white"/>
</svg>